<svg width="14" height="9" viewBox="0 0 14 9" fill="none" xmlns="http://www.w3.org/2000/svg">
<path d="M1.37502 3.66665C1.02984 3.66665 0.750021 3.94647 0.750021 4.29165C0.750021 4.60806 0.985149 4.86956 1.29021 4.91094L1.37502 4.91665H13.0417C13.3869 4.91665 13.6667 4.63682 13.6667 4.29165C13.6667 3.97523 13.4316 3.71374 13.1265 3.67235L13.0417 3.66665H1.37502Z" fill="#EF7925"/>
<path d="M13.4836 3.8497C13.2617 3.62782 12.9145 3.60764 12.6698 3.78919L12.5997 3.8497L9.26641 7.18304C9.02233 7.42712 9.02233 7.82284 9.26641 8.06692C9.4883 8.28881 9.83552 8.30898 10.0802 8.12744L10.1503 8.06692L13.4836 4.73359C13.7277 4.48951 13.7277 4.09378 13.4836 3.8497Z" fill="#EF7925"/>
<path d="M10.1503 0.516371C9.90622 0.272294 9.51049 0.272294 9.26641 0.516371C9.04452 0.73826 9.02435 1.08548 9.2059 1.33016L9.26641 1.40025L12.5997 4.73359C12.8438 4.97767 13.2396 4.97767 13.4836 4.73359C13.7055 4.5117 13.7257 4.16448 13.5441 3.9198L13.4836 3.8497L10.1503 0.516371Z" fill="#EF7925"/>
</svg>
